<?xml version="1.0" encoding="UTF-8"?>
<svg width="1200pt" height="1200pt" version="1.1" viewBox="0 0 1200 1200" xmlns="http://www.w3.org/2000/svg" style="fill:#512bd4">
 <path d="m153.25 530.5c-30.25-51.281-57.305-104.38-81-159-36.402 83.961-52.242 175.39-46.195 266.71 6.043 91.312 33.793 179.86 80.945 258.29 7.207-75.816 24.008-150.41 50-222-20.055-18.336-31.785-44.039-32.492-71.203-0.70703-27.164 9.668-53.445 28.742-72.797z"/>
 <path d="m175 600c0 13.262 5.2695 25.98 14.645 35.355s22.094 14.645 35.355 14.645 25.98-5.2695 35.355-14.645 14.645-22.094 14.645-35.355-5.2695-25.98-14.645-35.355-22.094-14.645-35.355-14.645-25.98 5.2695-35.355 14.645-14.645 22.094-14.645 35.355z"/>
 <path d="m610.25 918.5c-3.0859-6.5781-5.5117-13.445-7.25-20.5-123.86-45.035-235.97-117.41-328-211.75-21.699 13.023-47.656 16.977-72.25 11-28.805 84.66-45.633 172.93-50 262.25 78.391 98.152 186.88 167.81 308.75 198.25-0.14062-0.82812-0.14062-1.6719 0-2.5 21.031-93.613 73.535-177.18 148.75-236.75z"/>
 <path d="m259 506.5c105.14-129.13 253.25-216.1 417.25-245 3.0586-23.695 14.5-45.512 32.25-61.5-31.066-61.348-67.367-119.89-108.5-175-100.92 0.0625-200.05 26.688-287.42 77.199-87.371 50.508-159.91 123.12-210.33 210.55 26.254 66.32 57.598 130.51 93.75 192 20.543-6.918 42.875-6.2969 63 1.75z"/>
 <path d="m750 875c0 27.613-22.387 50-50 50s-50-22.387-50-50 22.387-50 50-50 50 22.387 50 50"/>
 <path d="m760.75 373.5c-17.449-2.5156-33.922-9.5977-47.75-20.527-13.832-10.934-24.527-25.324-31-41.723-149.8 27.016-285.16 106.3-382 223.75 14 15.746 22.539 35.598 24.34 56.59 1.8008 20.992-3.2266 42.008-14.34 59.91 83.336 85.008 183.93 151.16 295 194 8.1875-25.957 26.602-47.453 50.992-59.531 24.391-12.078 52.652-13.691 78.258-4.4688 43.055-131.6 52.172-271.94 26.5-408z"/>
 <path d="m825 275c0 27.613-22.387 50-50 50s-50-22.387-50-50 22.387-50 50-50 50 22.387 50 50"/>
 <path d="m775 175c22.836-0.007812 44.988 7.8008 62.77 22.129 17.785 14.324 30.129 34.305 34.98 56.621 75.352 7.0586 149.47 23.867 220.5 50-45.664-75.848-108.23-140.13-182.81-187.83-74.586-47.699-159.18-77.531-247.19-87.172 123.75 178.25 65 146.25 111.75 146.25z"/>
 <path d="m800 883.25c-3.1445 35.523-24.969 66.68-57.273 81.777-32.309 15.098-70.211 11.848-99.477-8.5273-67.59 52.816-114.7 127.5-133.25 211.25 106.35 16.852 215.3 3.5 314.44-38.531 99.137-42.031 184.48-111.06 246.31-199.22l-3-1.75c-80.57-47.711-176.01-63.75-267.75-45z"/>
 <path d="m1129.5 375c-81.309-39.637-169.16-64.121-259.25-72.25-8.8906 29.57-30.941 53.379-59.75 64.5 27.418 148.18 15.785 300.93-33.75 443.25 5.6406 6.8984 10.426 14.453 14.25 22.5 104.8-21.023 213.67-2.1211 305.25 53 0 11 153.75-229.75 33.25-511z"/>
</svg>
